<?xml version="1.0" standalone="no"?>
<!DOCTYPE svg PUBLIC "-//W3C//DTD SVG 20010904//EN"
 "http://www.w3.org/TR/2001/REC-SVG-20010904/DTD/svg10.dtd">
<svg version="1.0" xmlns="http://www.w3.org/2000/svg"
 width="500.000000pt" height="500.000000pt" viewBox="0 0 500.000000 500.000000"
 preserveAspectRatio="xMidYMid meet">

<g transform="translate(0.000000,500.000000) scale(0.100000,-0.100000)"
fill="#000000" stroke="none">
<path d="M0 4625 c0 -233 4 -375 10 -375 5 0 18 -9 29 -21 15 -17 17 -27 10
-52 -5 -18 -18 -39 -29 -47 -20 -15 -20 -25 -18 -844 l3 -828 64 0 c68 0 112
-23 96 -49 -6 -8 -4 -10 5 -4 10 6 12 -2 8 -40 -8 -70 -38 -91 -114 -79 -22 3
-35 13 -47 37 -15 30 -16 -56 -16 -1145 l-1 -1178 2500 0 2500 0 -2 1697 -3
1698 -22 -3 c-12 -2 -33 3 -45 10 -13 7 -26 12 -29 11 -11 -3 -8 60 4 76 12
17 36 19 75 7 21 -7 22 -5 22 48 0 31 -3 55 -8 55 -43 -7 -65 30 -36 62 13 14
20 16 31 8 11 -10 13 20 12 177 0 109 -4 181 -9 169 -7 -18 -8 -19 -15 -3 -4
10 -11 15 -16 12 -5 -3 -17 0 -26 5 -15 8 -15 11 -3 12 8 1 2 5 -15 9 -28 7
-28 8 -8 15 16 5 23 18 28 48 6 33 10 38 19 26 6 -8 19 -18 29 -22 16 -6 17
10 17 258 l0 265 -26 -10 c-34 -13 -84 20 -84 56 0 26 35 68 50 59 5 -3 12 0
16 6 5 8 13 4 25 -12 18 -24 19 -22 19 119 l0 142 -45 0 c-33 0 -43 -3 -39
-13 6 -17 -63 -22 -82 -6 -7 6 -19 7 -25 3 -8 -4 -9 -3 -5 4 5 9 -87 12 -368
12 -330 0 -375 -2 -370 -15 4 -8 15 -15 25 -15 10 0 26 -11 35 -25 9 -14 24
-25 33 -25 15 -1 15 -1 0 -10 -9 -5 -22 -23 -29 -39 -7 -17 -21 -33 -31 -36
-10 -4 -19 -13 -19 -20 0 -18 -66 19 -83 46 -7 11 -17 19 -24 19 -16 0 -17 16
-3 25 6 4 8 11 4 16 -3 5 -10 7 -15 3 -12 -7 -48 36 -49 59 0 16 -16 17 -201
17 -131 0 -198 -3 -194 -10 3 -5 2 -10 -3 -10 -5 0 -12 -8 -15 -19 -11 -42
-102 -27 -114 20 -5 18 -21 19 -431 19 -424 0 -425 0 -407 -20 20 -22 14 -26
-17 -9 -16 8 -19 8 -13 -1 4 -7 1 -16 -6 -21 -20 -13 -31 -11 -23 4 4 6 -3 3
-16 -8 l-23 -20 5 23 c4 12 3 20 -2 17 -4 -3 -10 4 -13 15 -5 20 -15 20 -672
20 l-667 0 -11 -29 c-6 -16 -21 -35 -34 -42 -13 -7 -23 -16 -23 -20 0 -15 -57
22 -86 56 l-29 35 -457 0 -458 0 0 -375z m3858 240 c18 -21 20 -30 11 -46 -25
-47 -94 -44 -117 6 -8 18 -6 27 14 48 29 31 59 29 92 -8z m-2327 -5 c5 0 12 0
15 1 3 0 15 -11 28 -25 12 -14 28 -26 36 -26 12 -1 11 -3 -2 -14 -10 -7 -18
-20 -18 -29 0 -9 -4 -19 -10 -22 -5 -3 -10 2 -10 12 0 10 -10 -2 -21 -27 -12
-27 -23 -40 -27 -33 -4 7 -20 17 -36 22 -15 6 -30 20 -33 31 -3 11 -12 20 -19
20 -19 0 -18 16 1 24 8 3 20 17 25 31 5 14 16 25 24 25 7 0 17 10 21 23 6 19
8 19 12 5 2 -10 9 -18 14 -18z m1969 -70 c5 0 22 -13 38 -30 17 -16 27 -30 22
-30 -4 0 -11 -12 -14 -27 -9 -35 -63 -86 -70 -66 -3 8 -10 12 -14 9 -10 -6
-62 40 -62 54 0 6 -7 10 -15 10 -10 0 -6 8 10 25 14 13 25 28 25 34 0 5 9 13
20 16 12 4 20 15 21 28 l0 22 16 -22 c8 -13 19 -23 23 -23z m-532 3 c21 -56
21 -63 8 -63 -7 0 -19 -7 -26 -15 -7 -8 -16 -13 -20 -10 -4 2 -16 -2 -26 -10
-18 -13 -18 -14 6 -24 15 -6 19 -10 9 -10 -22 -1 -43 25 -35 44 3 9 2 13 -4
10 -6 -3 -10 2 -11 12 0 10 -2 30 -3 45 -2 27 11 34 85 47 4 1 11 -11 17 -26z
m1292 -42 c9 -20 7 -27 -15 -47 -32 -29 -54 -30 -89 -3 -40 31 -28 78 25 97
28 11 61 -9 79 -47z m-3753 -28 l22 -31 -25 -6 c-14 -4 -22 -11 -19 -16 3 -4
-8 -15 -24 -23 -25 -12 -31 -12 -48 2 -11 9 -27 30 -35 46 -13 29 -13 32 6 47
12 8 31 18 44 22 12 4 22 12 22 17 0 11 27 -17 57 -58z m2319 49 c6 -27 17
-51 23 -47 4 2 8 -2 8 -10 0 -18 -9 -19 -26 -2 -11 10 -11 8 -1 -9 7 -11 28
-31 46 -43 19 -13 34 -29 34 -37 0 -20 -50 -54 -79 -54 -35 0 -71 26 -71 51 0
15 -7 19 -32 20 -33 0 -33 0 -8 12 35 16 35 15 15 38 -17 17 -17 22 -5 29 9 6
10 10 4 10 -7 0 -15 7 -18 16 -5 14 -1 16 25 10 26 -5 30 -3 25 10 -5 13 -2
15 14 11 11 -3 23 -1 26 5 6 9 18 3 20 -10z m-629 -46 c16 3 33 -9 33 -22 0
-8 10 -18 22 -23 18 -6 19 -9 5 -14 -9 -3 -14 -12 -12 -19 6 -14 -29 -58 -45
-58 -6 0 -10 -8 -10 -17 -1 -16 -2 -16 -13 -3 -7 8 -19 16 -27 18 -21 5 -50
33 -50 49 0 7 -7 13 -16 13 -13 0 -11 6 9 26 15 15 25 30 22 34 -2 4 7 12 20
18 14 7 25 20 25 29 1 14 4 12 15 -7 7 -14 17 -24 22 -24z m2290 31 c6 -4 18
-4 27 -1 11 4 16 1 16 -11 0 -10 6 -15 13 -12 41 15 57 17 57 8 0 -6 6 -11 13
-11 6 0 19 -13 29 -29 15 -28 15 -30 -5 -49 -31 -27 -55 -34 -80 -20 -19 10
-60 17 -134 22 -17 1 -19 4 -12 19 6 9 7 22 4 27 -3 5 20 7 56 4 41 -3 59 -2
54 6 -3 5 -21 10 -40 10 -45 0 -65 9 -65 29 0 17 44 23 67 8z m-4314 -134 c14
-16 16 -23 7 -23 -9 0 -7 -5 6 -14 18 -14 18 -15 2 -21 -10 -4 -16 -11 -13
-15 3 -5 -8 -15 -25 -23 -29 -15 -31 -14 -55 15 -14 16 -25 34 -25 39 0 26 -2
25 39 28 11 1 10 5 -5 16 -19 14 -18 14 3 10 15 -2 23 3 28 18 5 17 8 18 12 7
3 -8 15 -25 26 -37z m1404 -16 c27 -10 38 -52 22 -89 -10 -24 -17 -28 -48 -28
-61 1 -73 23 -60 110 3 16 47 20 86 7z m-1027 -62 c0 -9 7 -18 15 -21 8 -4 12
-10 9 -15 -3 -5 2 -12 10 -15 20 -8 21 -24 2 -24 -8 0 -17 -7 -20 -16 -3 -8
-10 -13 -15 -10 -5 3 -11 -1 -15 -9 -7 -20 -26 -19 -26 1 0 8 -3 13 -7 11 -5
-3 -14 1 -21 9 -7 8 -10 14 -6 14 3 0 1 6 -5 13 -13 17 -5 27 22 27 17 0 18 2
6 17 -12 15 -12 16 3 11 10 -4 19 -1 22 8 7 19 26 18 26 -1z m2621 -10 c5 4 9
-6 9 -20 0 -15 -4 -24 -10 -20 -5 3 -10 2 -10 -2 0 -5 9 -14 20 -21 11 -7 20
-18 20 -25 0 -13 -40 -43 -54 -39 -4 2 -14 -3 -22 -9 -11 -9 -14 -8 -14 5 0 9
-7 16 -17 16 -9 0 -13 3 -10 7 4 3 0 17 -9 31 -8 13 -13 29 -11 37 3 7 0 18
-6 25 -10 10 -5 11 20 7 27 -5 31 -4 26 10 -5 13 -2 15 15 11 12 -4 25 -1 29
5 5 8 9 6 11 -6 2 -9 8 -15 13 -12z m-1814 -61 c26 -23 32 -33 23 -39 -9 -6
-11 -4 -5 6 5 8 4 11 -1 6 -5 -5 -10 -13 -10 -18 -1 -5 -2 -14 -3 -20 0 -5 -6
-7 -12 -4 -6 4 -21 -3 -35 -16 l-24 -22 0 31 c0 18 -5 32 -11 32 -5 0 -7 -6
-3 -12 5 -9 2 -9 -9 1 -9 7 -17 20 -17 27 0 8 -5 14 -11 14 -5 0 -7 5 -4 10 3
6 15 10 26 10 10 0 19 5 19 11 0 5 5 7 10 4 6 -3 10 2 10 13 0 26 14 38 18 15
2 -10 20 -32 39 -49z m1544 43 c25 -30 25 -77 -1 -84 -11 -3 -20 -9 -20 -14 0
-5 -9 -9 -19 -9 -29 0 -68 41 -75 78 -5 27 -2 34 16 41 42 15 80 11 99 -12z
m-2071 -37 c0 -7 -40 -3 -70 7 -11 3 -9 8 10 18 22 12 27 11 43 -2 9 -9 17
-19 17 -23z m136 -26 c27 -18 32 -34 10 -34 -8 0 -17 -7 -20 -16 -3 -8 -10
-13 -15 -10 -5 3 -12 -4 -16 -17 -7 -20 -7 -21 -12 -3 -6 24 -42 55 -65 56 -9
0 -19 -8 -22 -17 -3 -10 -17 -23 -29 -29 -21 -9 -28 -7 -50 18 -15 16 -27 36
-27 46 0 17 6 18 63 11 35 -4 72 -6 83 -4 10 2 23 4 27 4 5 1 5 6 2 11 -3 6 0
10 8 10 8 0 18 8 23 18 7 15 8 14 11 -6 3 -12 15 -30 29 -38z m3084 22 c0 -4
8 -6 18 -4 16 5 18 0 16 -36 -2 -23 -4 -48 -4 -57 -1 -12 -11 -15 -43 -12 -75
5 -76 6 -66 24 5 10 8 26 7 36 -4 50 1 58 37 58 19 0 35 -4 35 -9z m-2881 -36
c18 0 56 -46 53 -64 -2 -11 0 -16 6 -12 6 3 13 3 16 -2 5 -9 -75 -52 -97 -52
-24 0 -68 55 -61 76 11 31 47 65 62 59 7 -3 17 -5 21 -5z m248 -43 c15 -18 18
-29 11 -47 -9 -25 -54 -71 -61 -63 -5 5 -31 -58 -28 -69 2 -12 -34 -44 -65
-60 -27 -13 -30 -12 -58 20 l-29 33 23 24 c25 27 17 33 -14 10 -19 -15 -41
-11 -31 5 3 5 1 18 -4 29 -9 16 -4 21 49 40 33 12 73 33 89 47 21 17 31 21 34
12 3 -8 6 -6 6 5 1 10 6 15 11 12 6 -3 13 1 16 9 9 23 27 20 51 -7z m2100 -32
c-4 -8 -1 -17 5 -21 7 -5 7 -8 0 -13 -24 -14 46 -65 75 -54 17 6 17 6 0 -14
-13 -15 -15 -22 -6 -25 8 -3 10 -16 5 -41 -6 -33 -9 -36 -26 -27 -28 15 -35
12 -36 -16 -1 -14 -9 -33 -19 -44 -20 -22 -65 -33 -65 -14 0 7 -4 14 -8 16 -5
2 -12 18 -15 36 -5 27 -3 32 12 32 10 0 30 11 45 25 23 21 25 27 14 44 -11 18
-14 19 -28 6 -23 -21 -33 -19 -27 5 3 11 1 20 -5 20 -5 0 -8 10 -6 23 2 12 -4
28 -12 35 -13 11 -10 12 19 6 26 -5 32 -3 26 7 -6 9 -4 11 8 6 8 -3 21 1 27 9
16 18 24 18 17 -1z m-2706 -46 c43 -23 56 -43 44 -71 -5 -14 -19 -35 -29 -46
-17 -20 -20 -20 -52 -5 -52 25 -61 70 -21 110 26 25 31 27 58 12z m246 -41
c18 -17 20 -25 12 -47 -6 -14 -20 -35 -32 -47 -19 -18 -25 -19 -48 -7 -59 29
-67 82 -18 117 27 18 54 13 86 -16z m-634 -18 c10 0 21 -9 24 -20 3 -11 10
-20 15 -20 14 0 -1 -42 -25 -68 -26 -28 -62 -23 -93 15 -19 22 -20 28 -9 50
19 36 49 62 60 52 5 -5 18 -9 28 -9z m2660 -13 c9 -11 17 -23 17 -27 0 -4 17
-12 38 -19 35 -12 37 -15 39 -57 1 -24 0 -44 -3 -44 -2 0 -25 19 -49 41 -56
52 -60 37 -5 -16 33 -33 38 -41 24 -45 -21 -8 -95 11 -88 22 8 13 -6 48 -20
48 -26 0 -57 38 -60 74 -3 30 -1 36 14 36 11 0 21 4 24 9 9 14 48 1 69 -22z
m797 8 c-7 -19 -6 -25 5 -25 7 0 17 -5 21 -12 5 -8 2 -9 -11 -4 -18 7 -18 6 0
-14 10 -11 16 -21 14 -23 -51 -30 -71 -38 -64 -26 6 11 5 12 -6 2 -20 -20 -38
-16 -32 7 3 12 0 20 -6 20 -7 0 -9 4 -6 10 3 5 1 19 -5 30 -10 18 -8 20 20 20
17 0 39 9 50 20 26 26 31 25 20 -5z m-3649 -30 c-1 -9 -49 -15 -64 -7 -5 2 0
10 10 17 18 13 55 6 54 -10z m434 -9 c15 -17 19 -28 12 -35 -5 -5 -11 -28 -13
-51 -2 -33 0 -40 12 -36 13 5 18 -5 15 -31 -1 -7 5 -13 12 -13 12 0 12 -6 -1
-35 -9 -19 -20 -35 -24 -35 -4 0 -8 -7 -8 -16 0 -9 -5 -12 -12 -8 -7 5 -21 9
-31 9 -28 2 -52 31 -40 47 20 26 5 111 -22 122 -8 3 -15 12 -15 21 0 8 -6 15
-12 15 -9 0 -10 2 -2 8 7 4 13 16 15 27 4 18 33 32 73 34 10 1 29 -10 41 -23z
m3581 -5 c21 4 35 -2 29 -11 -3 -6 4 -10 17 -10 l23 -1 -22 -18 c-16 -13 -20
-25 -16 -42 6 -21 4 -22 -9 -11 -13 10 -15 8 -11 -15 4 -28 4 -28 -14 -8 -10
11 -24 20 -30 21 -35 3 -38 4 -23 14 12 7 8 10 -15 10 l-30 1 23 18 c15 13 18
21 10 24 -7 3 -3 6 10 6 14 1 20 5 17 11 -4 6 -4 19 0 28 6 16 7 16 20 -1 7
-10 17 -17 21 -16z m-3981 -21 c10 -16 -12 -63 -35 -78 -25 -16 -64 -1 -86 33
-11 18 -13 29 -6 38 13 16 118 21 127 7z m4307 -65 c3 3 17 -1 33 -9 26 -14
26 -15 7 -25 -14 -8 -19 -17 -15 -32 4 -15 3 -20 -5 -15 -8 5 -12 -1 -12 -15
0 -22 0 -22 -22 -3 -12 10 -18 13 -14 6 7 -11 4 -12 -13 -3 -11 7 -21 16 -21
21 0 5 -8 11 -17 13 -15 4 -14 6 5 12 14 5 21 13 18 22 -3 7 1 16 9 19 8 4 12
10 9 15 -3 5 -2 14 2 20 4 8 11 4 18 -10 7 -12 15 -19 18 -16z m-3567 -39 c36
-19 45 -41 34 -81 -12 -39 -28 -54 -64 -56 -62 -3 -81 13 -77 64 1 10 -3 15
-8 12 -14 -8 -13 -1 7 43 14 33 20 38 47 36 17 -1 44 -9 61 -18z m713 3 c-2
-6 -8 -10 -13 -10 -5 0 -11 4 -13 10 -2 6 4 11 13 11 9 0 15 -5 13 -11z m-478
-78 c0 -5 8 -7 18 -5 9 2 25 -2 34 -9 14 -11 15 -20 6 -55 -11 -45 -13 -46
-79 -21 l-26 10 16 45 c14 40 31 59 31 35z m2104 -21 c6 0 20 -14 30 -30 16
-29 16 -33 2 -55 -17 -25 -25 -29 -61 -25 -53 5 -77 84 -32 106 12 6 28 10 35
8 8 -2 19 -4 26 -4z m-1616 -21 c281 -101 530 -156 842 -185 96 -9 178 -18
182 -20 4 -3 15 -31 24 -64 l16 -59 56 0 c75 0 155 -40 197 -100 27 -38 30
-51 30 -114 0 -61 -5 -79 -29 -120 -41 -70 -93 -101 -175 -105 -45 -2 -78 2
-104 13 -44 18 -126 90 -137 121 -7 18 -26 23 -177 43 -155 22 -328 49 -430
70 -23 4 -40 5 -38 0 9 -13 178 -47 405 -80 118 -18 217 -37 219 -42 2 -5 19
-27 37 -47 19 -21 34 -45 34 -54 0 -9 -43 -215 -96 -459 -52 -243 -110 -516
-129 -607 -19 -91 -45 -219 -59 -285 -14 -65 -26 -122 -26 -127 0 -4 314 -7
697 -8 672 0 699 -1 717 -19 19 -19 18 -25 -53 -363 -40 -189 -74 -356 -78
-373 -13 -69 30 -65 -643 -65 -334 0 -610 -3 -613 -7 -4 -3 0 -15 10 -25 9
-10 12 -18 7 -18 -5 0 -3 -4 5 -9 9 -6 -1 -10 -32 -12 -25 -2 -43 -1 -40 4 2
4 0 7 -5 7 -5 0 -12 9 -15 20 -3 11 -1 20 5 20 5 0 6 4 3 10 -5 9 -1028 9
-1062 0 -6 -2 -9 -10 -6 -18 5 -11 7 -11 15 0 7 9 8 7 5 -9 -3 -12 0 -24 7
-26 6 -3 -6 -8 -27 -12 -34 -7 -63 -25 -34 -21 6 0 13 -1 14 -4 1 -3 6 -17 12
-31 7 -19 6 -30 -2 -38 -9 -10 -9 -12 3 -9 12 2 15 -9 13 -66 -1 -44 -7 -72
-15 -78 -7 -4 -8 -8 -3 -8 6 0 10 -10 9 -23 -3 -34 -25 -87 -36 -87 -6 0 -5 7
2 18 7 9 -1 2 -19 -16 -27 -28 -37 -28 -32 1 1 5 -3 6 -9 2 -6 -3 -7 -11 -4
-17 5 -7 2 -8 -5 -4 -7 5 -10 15 -6 24 3 9 3 13 -1 9 -4 -4 -14 -1 -23 6 -14
10 -14 10 -6 -3 6 -9 2 -7 -7 3 -10 11 -15 24 -11 31 3 6 3 8 -2 4 -4 -4 -14
0 -22 10 -10 11 -12 12 -8 2 4 -8 -2 -4 -13 9 -13 17 -21 20 -27 12 -5 -9 -11
-7 -22 6 -8 10 -12 13 -9 6 4 -8 -3 -11 -21 -11 -16 1 -41 -2 -56 -7 -18 -5
-33 -3 -39 3 -9 9 -16 8 -27 -1 -12 -10 -14 -9 -8 7 6 16 5 17 -8 6 -12 -10
-15 -10 -15 4 0 10 -5 14 -11 10 -8 -5 -10 1 -7 19 3 16 1 24 -5 20 -6 -4 -8
2 -5 15 4 12 2 20 -2 17 -11 -7 -5 80 8 122 14 43 71 125 83 118 5 -4 9 -1 9
6 0 6 8 3 17 -8 10 -10 15 -14 11 -9 -5 6 -8 13 -8 16 0 8 146 4 160 -5 9 -5
11 -4 6 3 -4 7 -1 12 6 12 10 0 13 10 10 33 -2 18 13 107 32 197 71 322 96
439 161 750 36 173 106 502 155 730 49 228 112 525 140 660 29 135 54 247 56
249 2 2 38 -6 79 -18 137 -41 101 -16 -50 35 -184 61 -195 69 -195 137 1 81
36 207 72 259 29 42 91 48 176 17z m2169 -16 c-4 -3 -2 -12 5 -20 6 -7 8 -16
5 -20 -4 -3 -1 -13 5 -21 10 -11 8 -16 -7 -25 -11 -7 -32 -15 -46 -18 -21 -5
-28 -1 -38 22 -14 33 -11 65 7 62 7 -2 12 1 12 6 0 8 16 14 54 20 5 0 6 -2 3
-6z m-3239 -73 c18 -13 32 -32 32 -42 0 -10 5 -18 11 -18 5 0 8 -4 5 -8 -2 -4
-1 -14 4 -22 5 -8 3 -24 -5 -41 -8 -14 -12 -29 -10 -31 10 -10 -79 -7 -91 3
-7 6 -17 8 -23 5 -5 -3 -7 3 -4 14 3 11 0 20 -6 20 -6 0 -11 7 -11 15 0 8 -4
15 -10 15 -12 0 -11 44 3 85 8 26 14 30 41 30 18 -1 46 -12 64 -25z m-326 -72
c-2 -15 -18 -41 -35 -58 -17 -16 -25 -30 -18 -30 10 0 11 -10 7 -34 -5 -28 -3
-37 13 -45 11 -6 27 -18 35 -27 18 -17 22 -69 6 -79 -6 -4 -8 -10 -5 -15 10
-16 -49 -16 -77 -1 -27 15 -32 28 -29 81 2 20 -6 29 -33 42 -38 19 -48 46 -32
90 6 16 19 28 35 31 19 4 26 12 27 30 1 13 9 36 18 50 17 25 18 25 54 9 33
-14 37 -20 34 -44z m583 -44 c37 -5 52 -17 48 -37 -14 -64 -35 -75 -89 -46
-22 11 -22 14 2 81 4 10 11 15 18 11 6 -4 16 -8 21 -9z m3396 -90 c-31 -22
-71 -23 -82 -1 -20 36 -18 65 5 73 63 21 60 22 77 -20 14 -37 14 -42 0 -52z
m-615 58 c9 -13 13 -30 10 -37 -3 -8 0 -17 6 -21 17 -11 -51 -35 -78 -28 -27
7 -44 32 -44 65 0 49 77 65 106 21z m1019 -168 c-58 -30 -85 -20 -91 35 -3 23
1 30 19 36 12 4 27 7 34 6 6 -1 15 4 19 10 4 7 13 -5 23 -32 16 -43 16 -44 -4
-55z m-4177 4 c2 -4 10 -8 18 -8 19 0 18 -30 -2 -58 -17 -24 -50 -28 -76 -9
-14 11 -15 20 -6 55 10 38 12 41 37 35 14 -3 28 -10 29 -15z m3498 -24 c23
-44 22 -72 -3 -83 -57 -26 -109 6 -101 61 6 43 84 60 104 22z m631 -58 c24 -6
28 -11 27 -39 -1 -65 -29 -83 -89 -55 -25 11 -32 38 -19 84 6 22 19 23 81 10z
m-4575 -46 c10 0 18 -4 18 -10 0 -5 6 -10 14 -10 14 0 14 -18 1 -57 -9 -28
-44 -30 -73 -5 -15 13 -18 22 -11 35 6 9 7 17 3 17 -3 0 -1 7 6 15 6 8 8 20 4
27 -5 10 -4 11 7 1 7 -7 21 -13 31 -13z m4282 -11 c-2 -3 3 -15 11 -25 20 -27
18 -62 -4 -74 -50 -26 -101 1 -101 56 0 26 5 34 25 41 29 9 75 11 69 2z m-646
-521 c-2 -11 -11 -22 -20 -24 -22 -3 -23 10 -2 30 21 21 26 20 22 -6z m805
-339 c4 -15 0 -19 -18 -19 -41 0 -47 34 -7 37 12 1 22 -6 25 -18z m-4193 -439
c0 -20 -33 -44 -52 -38 -18 6 -18 41 -1 60 19 21 53 7 53 -22z m476 -319 c-4
-5 -1 -11 6 -13 8 -3 6 -7 -5 -11 -17 -6 -24 12 -10 26 9 10 15 8 9 -2z m-52
-1352 c-3 -5 -10 -7 -15 -3 -5 3 -7 10 -3 15 3 5 10 7 15 3 5 -3 7 -10 3 -15z
m462 9 c4 -7 3 -8 -4 -4 -7 4 -12 2 -12 -5 0 -7 -3 -10 -6 -6 -6 5 3 27 11 27
2 0 7 -5 11 -12z m3217 -14 c-5 -14 -42 -26 -55 -18 -5 3 -4 12 3 20 14 16 59
15 52 -2z m392 -214 c26 -10 79 -22 103 -23 6 0 12 -4 12 -9 0 -5 4 -7 9 -3
24 14 24 -122 1 -166 -13 -23 -70 -36 -81 -18 -5 8 -9 11 -9 6 0 -4 -11 0 -24
8 -22 15 -55 26 -83 27 -7 1 -13 6 -13 11 0 6 -3 7 -7 4 -14 -14 -53 36 -53
67 1 35 18 61 57 88 32 20 51 22 88 8z"/>
<path d="M874 888 c-4 -7 -4 -10 1 -6 4 4 15 2 24 -5 14 -11 14 -10 2 6 -16
20 -18 21 -27 5z"/>
<path d="M946 873 c-4 -5 -12 -8 -18 -8 -6 0 -12 -8 -14 -19 -2 -16 0 -16 22
5 13 12 24 24 24 26 0 5 -6 3 -14 -4z"/>
<path d="M854 859 c-3 -6 -2 -15 4 -21 6 -6 12 -6 17 3 6 8 4 10 -5 4 -10 -6
-12 -4 -7 8 7 19 2 23 -9 6z"/>
<path d="M879 823 c-13 -16 -12 -17 4 -4 9 7 17 15 17 17 0 8 -8 3 -21 -13z"/>
<path d="M1231 722 c-1 -8 -6 -10 -13 -6 -7 4 -4 -2 6 -14 17 -20 15 -26 -6
-23 -4 0 -5 -6 -1 -15 3 -8 2 -14 -3 -12 -5 2 -10 0 -11 -4 -6 -17 -2 -20 12
-8 18 15 20 -1 3 -18 -6 -6 -10 -14 -7 -16 2 -3 15 12 28 32 15 23 18 32 8 23
-19 -15 -23 -1 -5 17 14 14 20 45 8 37 -5 -3 -11 1 -13 7 -4 10 -6 10 -6 0z"/>
<path d="M913 607 c0 -8 6 -14 14 -14 9 0 10 4 2 14 -6 7 -12 13 -14 13 -1 0
-2 -6 -2 -13z"/>
<path d="M1153 596 c0 -17 23 -15 40 4 10 12 9 12 -4 2 -10 -8 -19 -8 -26 -1
-6 6 -10 5 -10 -5z"/>
<path d="M4835 210 c9 -10 23 -17 31 -16 16 3 20 20 4 22 -5 1 -11 2 -12 4 -2
1 -11 3 -21 5 -18 3 -18 2 -2 -15z"/>
<path d="M4905 183 c1 -22 6 -27 28 -28 15 -1 30 2 33 7 3 5 0 7 -7 6 -7 -2
-13 2 -14 9 0 6 -4 15 -8 20 -5 4 -7 3 -5 -3 2 -7 -1 -12 -7 -13 -5 -1 -10 3
-10 8 0 5 -3 12 -6 15 -3 4 -5 -6 -4 -21z"/>
<path d="M4944 102 c23 -26 23 -26 23 -7 0 8 -3 13 -5 10 -3 -3 -12 1 -21 7
-10 8 -9 4 3 -10z"/>
<path d="M3955 4991 c-3 -6 3 -8 15 -6 11 2 23 -1 26 -7 4 -6 2 -8 -4 -4 -6 3
-13 2 -17 -3 -3 -6 6 -7 22 -4 16 3 34 6 41 6 6 0 12 6 12 14 0 15 -85 19 -95
4z"/>
<path d="M139 2303 c-13 -16 -12 -17 4 -4 16 13 21 21 13 21 -2 0 -10 -8 -17
-17z"/>
</g>
</svg>
